<svg width="8" height="6" viewBox="0 0 8 6" fill="currentColor" xmlns="http://www.w3.org/2000/svg">
<path d="M2.89644 6C2.8087 6.00015 2.72179 5.98229 2.64071 5.94744C2.55962 5.91258 2.48596 5.86142 2.42396 5.7969L0.196304 3.48311C0.0707709 3.35286 0.000158211 3.17611 2.65535e-07 2.99173C-0.00015768 2.80736 0.0701519 2.63048 0.195462 2.49999C0.320772 2.36951 0.490817 2.29611 0.66819 2.29595C0.845563 2.29578 1.01573 2.36887 1.14127 2.49912L2.89644 4.32353L6.87758 0.184461C7.00449 0.0626256 7.17184 -0.00342868 7.34456 0.000137215C7.51729 0.00370311 7.68198 0.0766127 7.80414 0.20359C7.9263 0.330567 7.99644 0.501758 7.99987 0.681295C8.0033 0.860833 7.93975 1.03478 7.82254 1.1667L3.36976 5.7969C3.30765 5.86153 3.23386 5.91275 3.15262 5.94761C3.07139 5.98246 2.98432 6.00027 2.89644 6Z" />
</svg>
