<svg width="20" height="20" viewBox="0 0 20 20" fill="currentColor" xmlns="http://www.w3.org/2000/svg">
<path d="M16.8093 4.936H13.8093V4.128C13.8093 3.56431 13.5856 3.02365 13.1874 2.62469C12.7892 2.22573 12.249 2.00106 11.6853 2H8.75729C8.19395 2.00159 7.65423 2.22649 7.25645 2.62539C6.85867 3.0243 6.63529 3.56466 6.63529 4.128V4.936H3.63529C3.46457 4.94264 3.30304 5.01514 3.1846 5.13828C3.06616 5.26142 3 5.42564 3 5.5965C3 5.76736 3.06616 5.93158 3.1846 6.05472C3.30304 6.17786 3.46457 6.25036 3.63529 6.257H4.43529V15.867C4.43503 16.4307 4.65842 16.9715 5.05645 17.3706C5.45447 17.7698 5.99461 17.9947 6.5583 17.996H13.8773C14.1567 17.9959 14.4334 17.9407 14.6916 17.8336C14.9497 17.7266 15.1842 17.5697 15.3817 17.372C15.5792 17.1743 15.7359 16.9397 15.8427 16.6814C15.9495 16.4232 16.0044 16.1465 16.0043 15.867V6.257H16.8043C16.975 6.25036 17.1365 6.17786 17.255 6.05472C17.3734 5.93158 17.4396 5.76736 17.4396 5.5965C17.4396 5.42564 17.3734 5.26142 17.255 5.13828C17.1365 5.01514 16.975 4.94264 16.8043 4.936H16.8093ZM7.9523 4.128C7.95229 3.91432 8.03704 3.70936 8.18795 3.55807C8.33886 3.40679 8.54361 3.32153 8.75729 3.321H11.6853C11.899 3.32153 12.1037 3.40679 12.2546 3.55807C12.4055 3.70936 12.4903 3.91432 12.4903 4.128V4.936H7.9523V4.128ZM14.6863 15.867C14.6866 16.0809 14.6019 16.2861 14.451 16.4376C14.3001 16.5891 14.0952 16.6745 13.8813 16.675H6.56229C6.34852 16.6742 6.14377 16.5887 5.99289 16.4373C5.84201 16.2858 5.75729 16.0808 5.75729 15.867V6.257H14.6873L14.6863 15.867Z" />
<path d="M8.75829 14.324C8.93299 14.3237 9.10045 14.2542 9.22398 14.1307C9.34751 14.0072 9.41703 13.8397 9.41729 13.665V9.274C9.42075 9.18537 9.40627 9.09694 9.37474 9.01404C9.3432 8.93113 9.29525 8.85545 9.23376 8.79152C9.17228 8.72758 9.09851 8.67672 9.0169 8.64198C8.93528 8.60724 8.84749 8.58933 8.75879 8.58933C8.67009 8.58933 8.5823 8.60724 8.50069 8.64198C8.41907 8.67672 8.34531 8.72758 8.28382 8.79152C8.22233 8.85545 8.17438 8.93113 8.14285 9.01404C8.11131 9.09694 8.09684 9.18537 8.10029 9.274V13.666C8.10056 13.8404 8.16997 14.0076 8.29331 14.131C8.41665 14.2543 8.58386 14.3237 8.75829 14.324Z" />
<path d="M11.6853 14.324C11.86 14.3237 12.0275 14.2542 12.151 14.1307C12.2745 14.0072 12.344 13.8397 12.3443 13.665V9.274C12.3477 9.18537 12.3333 9.09694 12.3017 9.01404C12.2702 8.93113 12.2223 8.85545 12.1608 8.79152C12.0993 8.72758 12.0255 8.67672 11.9439 8.64198C11.8623 8.60724 11.7745 8.58933 11.6858 8.58933C11.5971 8.58933 11.5093 8.60724 11.4277 8.64198C11.3461 8.67672 11.2723 8.72758 11.2108 8.79152C11.1493 8.85545 11.1014 8.93113 11.0699 9.01404C11.0383 9.09694 11.0238 9.18537 11.0273 9.274V13.666C11.0278 13.8404 11.0973 14.0074 11.2206 14.1307C11.3439 14.254 11.5109 14.3235 11.6853 14.324Z" />
</svg>
