<svg width="20" height="20" viewBox="0 0 20 20" fill="currentColor" xmlns="http://www.w3.org/2000/svg">
<path d="M15.885 11.3104C15.7137 11.3104 15.5494 11.3785 15.4282 11.4996C15.3071 11.6208 15.239 11.7851 15.239 11.9564V15.8844C15.239 16.1032 15.1521 16.3131 14.9974 16.4678C14.8426 16.6225 14.6328 16.7094 14.414 16.7094H4.117C3.8982 16.7094 3.68835 16.6225 3.53364 16.4678C3.37892 16.3131 3.292 16.1032 3.292 15.8844V5.58442C3.292 5.47607 3.31334 5.36879 3.3548 5.2687C3.39626 5.16861 3.45703 5.07766 3.53364 5.00105C3.61025 4.92444 3.70119 4.86367 3.80129 4.82221C3.90138 4.78075 4.00866 4.75941 4.117 4.75941H8.045C8.21646 4.75941 8.3809 4.6913 8.50214 4.57006C8.62339 4.44882 8.6915 4.28438 8.6915 4.11292C8.6915 3.94145 8.62339 3.77701 8.50214 3.65577C8.3809 3.53453 8.21646 3.46642 8.045 3.46642H4.117C3.55509 3.46721 3.01648 3.69105 2.61952 4.08876C2.22256 4.48647 1.99973 5.0255 2 5.58741V15.8874C2.00053 16.4488 2.22371 16.9871 2.62058 17.3841C3.01745 17.7812 3.55561 18.0046 4.117 18.0054H14.417C14.9782 18.0046 15.5162 17.7813 15.9131 17.3845C16.3099 16.9876 16.5332 16.4496 16.534 15.8884V11.9574C16.5341 11.8722 16.5174 11.7879 16.4848 11.7092C16.4522 11.6305 16.4044 11.559 16.3441 11.4989C16.2838 11.4388 16.2122 11.3912 16.1334 11.3588C16.0546 11.3265 15.9702 11.31 15.885 11.3104Z" />
<path d="M17.814 5.13142L14.872 2.18942C14.812 2.12937 14.7407 2.08173 14.6623 2.04923C14.5839 2.01673 14.4998 2 14.415 2C14.3301 2 14.246 2.01673 14.1676 2.04923C14.0892 2.08173 14.018 2.12937 13.958 2.18942L6.60197 9.54442C6.48094 9.66571 6.41296 9.83007 6.41296 10.0014V12.9434C6.41296 13.1147 6.48102 13.2791 6.60217 13.4002C6.72332 13.5214 6.88765 13.5894 7.05898 13.5894H10.001C10.0858 13.5895 10.1699 13.5728 10.2483 13.5404C10.3267 13.508 10.3979 13.4604 10.458 13.4004L17.813 6.04542C17.873 5.98542 17.9207 5.91418 17.9532 5.83577C17.9857 5.75735 18.0024 5.6733 18.0024 5.58842C18.0024 5.50353 17.9857 5.41948 17.9532 5.34107C17.9207 5.26265 17.874 5.19141 17.814 5.13142ZM9.73396 12.2974H7.70596V10.2684L14.415 3.55942L16.443 5.58742L9.73396 12.2974Z" />
</svg>
