<svg width="16" height="16" viewBox="0 0 16 16" fill="currentColor" xmlns="http://www.w3.org/2000/svg">
<path d="M8.01501 2.00007C7.95032 1.99901 7.88606 2.01072 7.8259 2.03453C7.76573 2.05835 7.71086 2.0938 7.66441 2.13885C7.61797 2.1839 7.58087 2.23767 7.55524 2.29708C7.5296 2.35649 7.51593 2.42037 7.51501 2.48507V13.5151C7.51501 13.6477 7.5677 13.7749 7.66147 13.8686C7.75524 13.9624 7.88241 14.0151 8.01501 14.0151C8.14762 14.0151 8.27481 13.9624 8.36858 13.8686C8.46234 13.7749 8.51501 13.6477 8.51501 13.5151V2.48507C8.5141 2.42037 8.50044 2.35649 8.47481 2.29708C8.44917 2.23767 8.41208 2.1839 8.36563 2.13885C8.31919 2.0938 8.26431 2.05835 8.20415 2.03453C8.14398 2.01072 8.07971 1.99901 8.01501 2.00007Z" />
<path d="M13.53 7.50206H2.5C2.36739 7.50206 2.24021 7.55475 2.14645 7.64851C2.05268 7.74228 2 7.86945 2 8.00206C2 8.13467 2.05268 8.26185 2.14645 8.35562C2.24021 8.44939 2.36739 8.50206 2.5 8.50206H13.53C13.6626 8.50206 13.7898 8.44939 13.8836 8.35562C13.9773 8.26185 14.03 8.13467 14.03 8.00206C14.03 7.86945 13.9773 7.74228 13.8836 7.64851C13.7898 7.55475 13.6626 7.50206 13.53 7.50206Z" />
</svg>
